<svg xmlns="http://www.w3.org/2000/svg" xmlns:xlink="http://www.w3.org/1999/xlink" width="193" zoomAndPan="magnify" viewBox="0 0 144.75 34.499999" height="46" preserveAspectRatio="xMidYMid meet" version="1.0"><defs><g/><clipPath id="326f5fb6aa"><path d="M 1 0 L 34.917969 0 L 34.917969 34 L 1 34 Z M 1 0 " clip-rule="nonzero"/></clipPath><clipPath id="86b2f66055"><path d="M 10.371094 0.277344 L 25.773438 0.277344 C 26.355469 0.277344 26.933594 0.332031 27.503906 0.445312 C 28.074219 0.558594 28.628906 0.726562 29.167969 0.949219 C 29.707031 1.175781 30.21875 1.445312 30.703125 1.769531 C 31.1875 2.09375 31.632812 2.460938 32.046875 2.875 C 32.457031 3.285156 32.824219 3.734375 33.148438 4.21875 C 33.472656 4.703125 33.746094 5.214844 33.96875 5.753906 C 34.191406 6.289062 34.359375 6.84375 34.472656 7.417969 C 34.585938 7.988281 34.644531 8.566406 34.644531 9.148438 L 34.644531 24.546875 C 34.644531 25.132812 34.585938 25.707031 34.472656 26.28125 C 34.359375 26.851562 34.191406 27.40625 33.96875 27.945312 C 33.746094 28.480469 33.472656 28.992188 33.148438 29.476562 C 32.824219 29.960938 32.457031 30.410156 32.046875 30.820312 C 31.632812 31.234375 31.1875 31.601562 30.703125 31.925781 C 30.21875 32.25 29.707031 32.523438 29.167969 32.746094 C 28.628906 32.96875 28.074219 33.136719 27.503906 33.25 C 26.933594 33.363281 26.355469 33.421875 25.773438 33.421875 L 10.371094 33.421875 C 9.789062 33.421875 9.210938 33.363281 8.640625 33.25 C 8.070312 33.136719 7.515625 32.96875 6.976562 32.746094 C 6.4375 32.523438 5.925781 32.25 5.441406 31.925781 C 4.957031 31.601562 4.511719 31.234375 4.097656 30.820312 C 3.6875 30.410156 3.320312 29.960938 2.996094 29.476562 C 2.671875 28.992188 2.398438 28.480469 2.175781 27.945312 C 1.953125 27.40625 1.785156 26.851562 1.671875 26.28125 C 1.558594 25.707031 1.5 25.132812 1.5 24.546875 L 1.5 9.148438 C 1.5 8.566406 1.558594 7.988281 1.671875 7.417969 C 1.785156 6.84375 1.953125 6.289062 2.175781 5.753906 C 2.398438 5.214844 2.671875 4.703125 2.996094 4.21875 C 3.320312 3.734375 3.6875 3.285156 4.097656 2.875 C 4.511719 2.460938 4.957031 2.09375 5.441406 1.769531 C 5.925781 1.445312 6.4375 1.175781 6.976562 0.949219 C 7.515625 0.726562 8.070312 0.558594 8.640625 0.445312 C 9.210938 0.332031 9.789062 0.277344 10.371094 0.277344 Z M 10.371094 0.277344 " clip-rule="nonzero"/></clipPath><linearGradient x1="48.927796" gradientTransform="matrix(0.739286, 0, 0, 0.739286, 0.910716, 0)" y1="17.33296" x2="-2.671857" gradientUnits="userSpaceOnUse" y2="27.366307" id="c31754c36a"><stop stop-opacity="1" stop-color="rgb(27.032471%, 49.378967%, 96.488953%)" offset="0"/><stop stop-opacity="1" stop-color="rgb(27.177429%, 49.316406%, 96.490479%)" offset="0.0078125"/><stop stop-opacity="1" stop-color="rgb(27.468872%, 49.19281%, 96.49353%)" offset="0.015625"/><stop stop-opacity="1" stop-color="rgb(27.758789%, 49.069214%, 96.496582%)" offset="0.0234375"/><stop stop-opacity="1" stop-color="rgb(28.050232%, 48.947144%, 96.498108%)" offset="0.03125"/><stop stop-opacity="1" stop-color="rgb(28.341675%, 48.823547%, 96.50116%)" offset="0.0390625"/><stop stop-opacity="1" stop-color="rgb(28.631592%, 48.699951%, 96.504211%)" offset="0.046875"/><stop stop-opacity="1" stop-color="rgb(28.923035%, 48.576355%, 96.507263%)" offset="0.0546875"/><stop stop-opacity="1" stop-color="rgb(29.212952%, 48.452759%, 96.510315%)" offset="0.0625"/><stop stop-opacity="1" stop-color="rgb(29.504395%, 48.329163%, 96.513367%)" offset="0.0703125"/><stop stop-opacity="1" stop-color="rgb(29.795837%, 48.205566%, 96.516418%)" offset="0.078125"/><stop stop-opacity="1" stop-color="rgb(30.085754%, 48.08197%, 96.51947%)" offset="0.0859375"/><stop stop-opacity="1" stop-color="rgb(30.377197%, 47.958374%, 96.522522%)" offset="0.09375"/><stop stop-opacity="1" stop-color="rgb(30.66864%, 47.836304%, 96.525574%)" offset="0.101562"/><stop stop-opacity="1" stop-color="rgb(30.958557%, 47.712708%, 96.528625%)" offset="0.109375"/><stop stop-opacity="1" stop-color="rgb(31.25%, 47.589111%, 96.531677%)" offset="0.117187"/><stop stop-opacity="1" stop-color="rgb(31.541443%, 47.465515%, 96.533203%)" offset="0.125"/><stop stop-opacity="1" stop-color="rgb(31.83136%, 47.341919%, 96.536255%)" offset="0.132812"/><stop stop-opacity="1" stop-color="rgb(32.122803%, 47.218323%, 96.539307%)" offset="0.140625"/><stop stop-opacity="1" stop-color="rgb(32.41272%, 47.094727%, 96.542358%)" offset="0.148437"/><stop stop-opacity="1" stop-color="rgb(32.704163%, 46.97113%, 96.54541%)" offset="0.15625"/><stop stop-opacity="1" stop-color="rgb(32.995605%, 46.84906%, 96.548462%)" offset="0.162792"/><stop stop-opacity="1" stop-color="rgb(33.140564%, 46.788025%, 96.549988%)" offset="0.164062"/><stop stop-opacity="1" stop-color="rgb(33.285522%, 46.725464%, 96.551514%)" offset="0.171875"/><stop stop-opacity="1" stop-color="rgb(33.576965%, 46.601868%, 96.554565%)" offset="0.179688"/><stop stop-opacity="1" stop-color="rgb(33.868408%, 46.478271%, 96.557617%)" offset="0.1875"/><stop stop-opacity="1" stop-color="rgb(34.158325%, 46.354675%, 96.560669%)" offset="0.195312"/><stop stop-opacity="1" stop-color="rgb(34.449768%, 46.231079%, 96.563721%)" offset="0.203125"/><stop stop-opacity="1" stop-color="rgb(34.739685%, 46.107483%, 96.566772%)" offset="0.210937"/><stop stop-opacity="1" stop-color="rgb(35.031128%, 45.983887%, 96.568298%)" offset="0.21875"/><stop stop-opacity="1" stop-color="rgb(35.322571%, 45.861816%, 96.57135%)" offset="0.226562"/><stop stop-opacity="1" stop-color="rgb(35.612488%, 45.73822%, 96.574402%)" offset="0.234375"/><stop stop-opacity="1" stop-color="rgb(35.903931%, 45.614624%, 96.577454%)" offset="0.242187"/><stop stop-opacity="1" stop-color="rgb(36.195374%, 45.491028%, 96.580505%)" offset="0.25"/><stop stop-opacity="1" stop-color="rgb(36.485291%, 45.367432%, 96.583557%)" offset="0.257812"/><stop stop-opacity="1" stop-color="rgb(36.776733%, 45.243835%, 96.586609%)" offset="0.265625"/><stop stop-opacity="1" stop-color="rgb(37.068176%, 45.120239%, 96.589661%)" offset="0.273437"/><stop stop-opacity="1" stop-color="rgb(37.358093%, 44.996643%, 96.592712%)" offset="0.28125"/><stop stop-opacity="1" stop-color="rgb(37.649536%, 44.874573%, 96.595764%)" offset="0.289062"/><stop stop-opacity="1" stop-color="rgb(37.939453%, 44.750977%, 96.598816%)" offset="0.296875"/><stop stop-opacity="1" stop-color="rgb(38.230896%, 44.62738%, 96.600342%)" offset="0.304687"/><stop stop-opacity="1" stop-color="rgb(38.522339%, 44.503784%, 96.603394%)" offset="0.3125"/><stop stop-opacity="1" stop-color="rgb(38.812256%, 44.380188%, 96.606445%)" offset="0.320312"/><stop stop-opacity="1" stop-color="rgb(39.103699%, 44.256592%, 96.609497%)" offset="0.328125"/><stop stop-opacity="1" stop-color="rgb(39.395142%, 44.132996%, 96.612549%)" offset="0.335938"/><stop stop-opacity="1" stop-color="rgb(39.685059%, 44.009399%, 96.615601%)" offset="0.34375"/><stop stop-opacity="1" stop-color="rgb(39.976501%, 43.885803%, 96.618652%)" offset="0.351562"/><stop stop-opacity="1" stop-color="rgb(40.266418%, 43.763733%, 96.621704%)" offset="0.359375"/><stop stop-opacity="1" stop-color="rgb(40.557861%, 43.640137%, 96.624756%)" offset="0.367187"/><stop stop-opacity="1" stop-color="rgb(40.849304%, 43.516541%, 96.627808%)" offset="0.375"/><stop stop-opacity="1" stop-color="rgb(41.139221%, 43.392944%, 96.630859%)" offset="0.382812"/><stop stop-opacity="1" stop-color="rgb(41.430664%, 43.269348%, 96.633911%)" offset="0.390625"/><stop stop-opacity="1" stop-color="rgb(41.722107%, 43.145752%, 96.635437%)" offset="0.398437"/><stop stop-opacity="1" stop-color="rgb(42.012024%, 43.022156%, 96.638489%)" offset="0.40625"/><stop stop-opacity="1" stop-color="rgb(42.303467%, 42.89856%, 96.641541%)" offset="0.414062"/><stop stop-opacity="1" stop-color="rgb(42.59491%, 42.776489%, 96.644592%)" offset="0.421875"/><stop stop-opacity="1" stop-color="rgb(42.884827%, 42.652893%, 96.647644%)" offset="0.429688"/><stop stop-opacity="1" stop-color="rgb(43.17627%, 42.529297%, 96.650696%)" offset="0.4375"/><stop stop-opacity="1" stop-color="rgb(43.466187%, 42.405701%, 96.653748%)" offset="0.445312"/><stop stop-opacity="1" stop-color="rgb(43.757629%, 42.282104%, 96.656799%)" offset="0.453125"/><stop stop-opacity="1" stop-color="rgb(44.049072%, 42.158508%, 96.659851%)" offset="0.460937"/><stop stop-opacity="1" stop-color="rgb(44.338989%, 42.034912%, 96.662903%)" offset="0.46875"/><stop stop-opacity="1" stop-color="rgb(44.630432%, 41.911316%, 96.665955%)" offset="0.476563"/><stop stop-opacity="1" stop-color="rgb(44.921875%, 41.789246%, 96.669006%)" offset="0.484375"/><stop stop-opacity="1" stop-color="rgb(45.211792%, 41.665649%, 96.670532%)" offset="0.492187"/><stop stop-opacity="1" stop-color="rgb(45.503235%, 41.542053%, 96.673584%)" offset="0.5"/><stop stop-opacity="1" stop-color="rgb(45.794678%, 41.418457%, 96.676636%)" offset="0.507813"/><stop stop-opacity="1" stop-color="rgb(46.084595%, 41.294861%, 96.679688%)" offset="0.515625"/><stop stop-opacity="1" stop-color="rgb(46.376038%, 41.171265%, 96.682739%)" offset="0.523438"/><stop stop-opacity="1" stop-color="rgb(46.665955%, 41.047668%, 96.685791%)" offset="0.53125"/><stop stop-opacity="1" stop-color="rgb(46.957397%, 40.924072%, 96.688843%)" offset="0.539062"/><stop stop-opacity="1" stop-color="rgb(47.24884%, 40.802002%, 96.691895%)" offset="0.546875"/><stop stop-opacity="1" stop-color="rgb(47.538757%, 40.678406%, 96.694946%)" offset="0.554688"/><stop stop-opacity="1" stop-color="rgb(47.8302%, 40.55481%, 96.697998%)" offset="0.5625"/><stop stop-opacity="1" stop-color="rgb(48.121643%, 40.431213%, 96.70105%)" offset="0.570312"/><stop stop-opacity="1" stop-color="rgb(48.41156%, 40.307617%, 96.704102%)" offset="0.578125"/><stop stop-opacity="1" stop-color="rgb(48.703003%, 40.184021%, 96.705627%)" offset="0.585938"/><stop stop-opacity="1" stop-color="rgb(48.99292%, 40.060425%, 96.708679%)" offset="0.59375"/><stop stop-opacity="1" stop-color="rgb(49.284363%, 39.936829%, 96.711731%)" offset="0.601562"/><stop stop-opacity="1" stop-color="rgb(49.575806%, 39.813232%, 96.714783%)" offset="0.609375"/><stop stop-opacity="1" stop-color="rgb(49.865723%, 39.691162%, 96.717834%)" offset="0.617188"/><stop stop-opacity="1" stop-color="rgb(50.157166%, 39.567566%, 96.720886%)" offset="0.625"/><stop stop-opacity="1" stop-color="rgb(50.448608%, 39.44397%, 96.723938%)" offset="0.632812"/><stop stop-opacity="1" stop-color="rgb(50.738525%, 39.320374%, 96.72699%)" offset="0.640625"/><stop stop-opacity="1" stop-color="rgb(51.029968%, 39.196777%, 96.730042%)" offset="0.648438"/><stop stop-opacity="1" stop-color="rgb(51.321411%, 39.073181%, 96.733093%)" offset="0.65625"/><stop stop-opacity="1" stop-color="rgb(51.611328%, 38.949585%, 96.736145%)" offset="0.664062"/><stop stop-opacity="1" stop-color="rgb(51.902771%, 38.825989%, 96.739197%)" offset="0.671875"/><stop stop-opacity="1" stop-color="rgb(52.192688%, 38.703918%, 96.740723%)" offset="0.679687"/><stop stop-opacity="1" stop-color="rgb(52.484131%, 38.580322%, 96.743774%)" offset="0.6875"/><stop stop-opacity="1" stop-color="rgb(52.775574%, 38.456726%, 96.746826%)" offset="0.695312"/><stop stop-opacity="1" stop-color="rgb(53.065491%, 38.33313%, 96.749878%)" offset="0.703125"/><stop stop-opacity="1" stop-color="rgb(53.356934%, 38.209534%, 96.75293%)" offset="0.710938"/><stop stop-opacity="1" stop-color="rgb(53.648376%, 38.085938%, 96.755981%)" offset="0.71875"/><stop stop-opacity="1" stop-color="rgb(53.938293%, 37.962341%, 96.759033%)" offset="0.726562"/><stop stop-opacity="1" stop-color="rgb(54.229736%, 37.838745%, 96.762085%)" offset="0.734375"/><stop stop-opacity="1" stop-color="rgb(54.521179%, 37.716675%, 96.765137%)" offset="0.742188"/><stop stop-opacity="1" stop-color="rgb(54.811096%, 37.593079%, 96.768188%)" offset="0.75"/><stop stop-opacity="1" stop-color="rgb(55.102539%, 37.469482%, 96.77124%)" offset="0.757812"/><stop stop-opacity="1" stop-color="rgb(55.392456%, 37.345886%, 96.772766%)" offset="0.765625"/><stop stop-opacity="1" stop-color="rgb(55.683899%, 37.22229%, 96.775818%)" offset="0.773438"/><stop stop-opacity="1" stop-color="rgb(55.975342%, 37.098694%, 96.77887%)" offset="0.78125"/><stop stop-opacity="1" stop-color="rgb(56.265259%, 36.975098%, 96.781921%)" offset="0.789062"/><stop stop-opacity="1" stop-color="rgb(56.556702%, 36.851501%, 96.784973%)" offset="0.796875"/><stop stop-opacity="1" stop-color="rgb(56.848145%, 36.727905%, 96.788025%)" offset="0.804688"/><stop stop-opacity="1" stop-color="rgb(57.138062%, 36.605835%, 96.791077%)" offset="0.8125"/><stop stop-opacity="1" stop-color="rgb(57.429504%, 36.482239%, 96.794128%)" offset="0.820312"/><stop stop-opacity="1" stop-color="rgb(57.719421%, 36.358643%, 96.79718%)" offset="0.828125"/><stop stop-opacity="1" stop-color="rgb(58.010864%, 36.235046%, 96.800232%)" offset="0.835938"/><stop stop-opacity="1" stop-color="rgb(58.302307%, 36.11145%, 96.803284%)" offset="0.837208"/><stop stop-opacity="1" stop-color="rgb(58.447266%, 36.050415%, 96.80481%)" offset="0.84375"/><stop stop-opacity="1" stop-color="rgb(58.592224%, 35.987854%, 96.806335%)" offset="0.851562"/><stop stop-opacity="1" stop-color="rgb(58.883667%, 35.864258%, 96.807861%)" offset="0.859375"/><stop stop-opacity="1" stop-color="rgb(59.17511%, 35.740662%, 96.810913%)" offset="0.867187"/><stop stop-opacity="1" stop-color="rgb(59.465027%, 35.618591%, 96.813965%)" offset="0.875"/><stop stop-opacity="1" stop-color="rgb(59.75647%, 35.494995%, 96.817017%)" offset="0.882812"/><stop stop-opacity="1" stop-color="rgb(60.047913%, 35.371399%, 96.820068%)" offset="0.890625"/><stop stop-opacity="1" stop-color="rgb(60.33783%, 35.247803%, 96.82312%)" offset="0.898437"/><stop stop-opacity="1" stop-color="rgb(60.629272%, 35.124207%, 96.826172%)" offset="0.90625"/><stop stop-opacity="1" stop-color="rgb(60.919189%, 35.00061%, 96.829224%)" offset="0.914062"/><stop stop-opacity="1" stop-color="rgb(61.210632%, 34.877014%, 96.832275%)" offset="0.921875"/><stop stop-opacity="1" stop-color="rgb(61.502075%, 34.753418%, 96.835327%)" offset="0.929688"/><stop stop-opacity="1" stop-color="rgb(61.791992%, 34.631348%, 96.838379%)" offset="0.9375"/><stop stop-opacity="1" stop-color="rgb(62.083435%, 34.507751%, 96.841431%)" offset="0.945312"/><stop stop-opacity="1" stop-color="rgb(62.374878%, 34.384155%, 96.842957%)" offset="0.953125"/><stop stop-opacity="1" stop-color="rgb(62.664795%, 34.260559%, 96.846008%)" offset="0.960938"/><stop stop-opacity="1" stop-color="rgb(62.956238%, 34.136963%, 96.84906%)" offset="0.96875"/><stop stop-opacity="1" stop-color="rgb(63.246155%, 34.013367%, 96.852112%)" offset="0.976562"/><stop stop-opacity="1" stop-color="rgb(63.537598%, 33.889771%, 96.855164%)" offset="0.984375"/><stop stop-opacity="1" stop-color="rgb(63.801575%, 33.778381%, 96.858215%)" offset="1"/></linearGradient><clipPath id="d6a13b1039"><rect x="0" width="78" y="0" height="23"/></clipPath></defs><g clip-path="url(#326f5fb6aa)"><g clip-path="url(#86b2f66055)"><path fill="url(#c31754c36a)" d="M 1.5 0.277344 L 1.5 33.421875 L 34.644531 33.421875 L 34.644531 0.277344 Z M 1.5 0.277344 " fill-rule="nonzero"/></g></g><path fill="#ffffff" d="M 14.171875 23.792969 L 20.796875 17.164062 C 21.84375 16.121094 21.839844 14.425781 20.792969 13.382812 C 19.75 12.34375 18.0625 12.34375 17.019531 13.386719 L 10.386719 20.007812 C 9.339844 21.054688 9.339844 22.75 10.386719 23.796875 C 11.429688 24.839844 13.125 24.839844 14.171875 23.792969 Z M 17.011719 15.273438 L 18.90625 17.167969 L 19.851562 16.222656 C 20.375 15.699219 20.375 14.851562 19.851562 14.328125 C 19.328125 13.804688 18.480469 13.804688 17.957031 14.328125 Z M 17.011719 15.273438 " fill-opacity="1" fill-rule="evenodd"/><path fill="#ffffff" d="M 12.996094 9.496094 C 13.058594 9.261719 13.390625 9.261719 13.453125 9.496094 L 13.792969 10.753906 C 13.8125 10.835938 13.878906 10.898438 13.960938 10.921875 L 15.214844 11.261719 C 15.449219 11.324219 15.449219 11.652344 15.214844 11.71875 L 13.960938 12.054688 C 13.878906 12.078125 13.8125 12.140625 13.792969 12.222656 L 13.453125 13.480469 C 13.390625 13.714844 13.058594 13.714844 12.996094 13.480469 L 12.65625 12.222656 C 12.636719 12.140625 12.574219 12.078125 12.492188 12.054688 L 11.234375 11.71875 C 11 11.652344 11 11.324219 11.234375 11.261719 L 12.492188 10.921875 C 12.574219 10.898438 12.636719 10.835938 12.65625 10.753906 Z M 12.996094 9.496094 " fill-opacity="1" fill-rule="nonzero"/><path fill="#ffffff" d="M 22.464844 8.550781 C 22.527344 8.316406 22.859375 8.316406 22.921875 8.550781 L 23.261719 9.808594 C 23.28125 9.890625 23.34375 9.953125 23.425781 9.976562 L 24.683594 10.3125 C 24.917969 10.375 24.917969 10.707031 24.683594 10.769531 L 23.425781 11.109375 C 23.34375 11.132812 23.28125 11.195312 23.261719 11.277344 L 22.921875 12.535156 C 22.859375 12.765625 22.527344 12.765625 22.464844 12.535156 L 22.125 11.277344 C 22.105469 11.195312 22.039062 11.132812 21.957031 11.109375 L 20.703125 10.769531 C 20.46875 10.707031 20.46875 10.375 20.703125 10.3125 L 21.957031 9.976562 C 22.039062 9.953125 22.105469 9.890625 22.125 9.808594 Z M 22.464844 8.550781 " fill-opacity="1" fill-rule="nonzero"/><path fill="#ffffff" d="M 23.410156 17.074219 C 23.472656 16.839844 23.804688 16.839844 23.867188 17.074219 L 24.207031 18.332031 C 24.226562 18.410156 24.292969 18.476562 24.371094 18.496094 L 25.628906 18.835938 C 25.863281 18.898438 25.863281 19.230469 25.628906 19.292969 L 24.371094 19.632812 C 24.292969 19.652344 24.226562 19.71875 24.207031 19.796875 L 23.867188 21.054688 C 23.804688 21.289062 23.472656 21.289062 23.410156 21.054688 L 23.070312 19.796875 C 23.050781 19.71875 22.984375 19.652344 22.90625 19.632812 L 21.648438 19.292969 C 21.414062 19.230469 21.414062 18.898438 21.648438 18.835938 L 22.90625 18.496094 C 22.984375 18.476562 23.050781 18.410156 23.070312 18.332031 Z M 23.410156 17.074219 " fill-opacity="1" fill-rule="nonzero"/><g transform="matrix(1, 0, 0, 1, 40, 0)"><g clip-path="url(#d6a13b1039)"><g fill="#ffffff" fill-opacity="1"><g transform="translate(0.930386, 16.055881)"><g><path d="M 6.921875 -13.390625 C 7.878906 -13.390625 8.695312 -13.210938 9.375 -12.859375 C 10.0625 -12.515625 10.578125 -12.023438 10.921875 -11.390625 C 11.265625 -10.765625 11.4375 -10.03125 11.4375 -9.1875 C 11.4375 -8.351562 11.265625 -7.617188 10.921875 -6.984375 C 10.578125 -6.359375 10.0625 -5.867188 9.375 -5.515625 C 8.695312 -5.171875 7.878906 -5 6.921875 -5 L 4.390625 -5 L 4.390625 0 L 1.734375 0 L 1.734375 -13.390625 Z M 6.5625 -7.09375 C 8.039062 -7.09375 8.78125 -7.789062 8.78125 -9.1875 C 8.78125 -10.59375 8.039062 -11.296875 6.5625 -11.296875 L 4.390625 -11.296875 L 4.390625 -7.09375 Z M 6.5625 -7.09375 "/></g></g></g><g fill="#ffffff" fill-opacity="1"><g transform="translate(12.909407, 16.055881)"><g><path d="M 1.453125 0 L 1.453125 -10.109375 L 3.921875 -10.109375 L 3.921875 -8.609375 L 4.109375 -8.5625 C 4.359375 -9.125 4.679688 -9.535156 5.078125 -9.796875 C 5.472656 -10.066406 5.957031 -10.203125 6.53125 -10.203125 C 7.101562 -10.203125 7.535156 -10.101562 7.828125 -9.90625 L 7.40625 -7.71875 L 7.21875 -7.671875 C 7.050781 -7.742188 6.890625 -7.796875 6.734375 -7.828125 C 6.578125 -7.859375 6.390625 -7.875 6.171875 -7.875 C 5.460938 -7.875 4.921875 -7.625 4.546875 -7.125 C 4.179688 -6.625 4 -5.828125 4 -4.734375 L 4 0 Z M 1.453125 0 "/></g></g><g transform="translate(20.837375, 16.055881)"><g><path d="M 2.71875 -11.3125 C 2.257812 -11.3125 1.882812 -11.453125 1.59375 -11.734375 C 1.3125 -12.015625 1.171875 -12.375 1.171875 -12.8125 C 1.171875 -13.238281 1.3125 -13.59375 1.59375 -13.875 C 1.882812 -14.15625 2.257812 -14.296875 2.71875 -14.296875 C 3.019531 -14.296875 3.289062 -14.226562 3.53125 -14.09375 C 3.769531 -13.96875 3.953125 -13.789062 4.078125 -13.5625 C 4.210938 -13.34375 4.28125 -13.09375 4.28125 -12.8125 C 4.28125 -12.519531 4.210938 -12.257812 4.078125 -12.03125 C 3.953125 -11.8125 3.769531 -11.632812 3.53125 -11.5 C 3.289062 -11.375 3.019531 -11.3125 2.71875 -11.3125 Z M 1.453125 0 L 1.453125 -10.109375 L 4 -10.109375 L 4 0 Z M 1.453125 0 "/></g></g><g transform="translate(26.281551, 16.055881)"><g><path d="M 4.734375 0.1875 C 4.035156 0.1875 3.398438 0.109375 2.828125 -0.046875 C 2.253906 -0.210938 1.765625 -0.4375 1.359375 -0.71875 C 0.953125 -1 0.648438 -1.320312 0.453125 -1.6875 L 1.875 -3.21875 L 2.0625 -3.21875 C 2.394531 -2.757812 2.789062 -2.414062 3.25 -2.1875 C 3.707031 -1.96875 4.207031 -1.859375 4.75 -1.859375 C 5.238281 -1.859375 5.609375 -1.945312 5.859375 -2.125 C 6.109375 -2.300781 6.234375 -2.554688 6.234375 -2.890625 C 6.234375 -3.140625 6.144531 -3.351562 5.96875 -3.53125 C 5.789062 -3.707031 5.5 -3.84375 5.09375 -3.9375 L 3.75 -4.265625 C 2.75 -4.503906 2.019531 -4.867188 1.5625 -5.359375 C 1.101562 -5.847656 0.875 -6.472656 0.875 -7.234375 C 0.875 -7.859375 1.03125 -8.398438 1.34375 -8.859375 C 1.664062 -9.328125 2.117188 -9.679688 2.703125 -9.921875 C 3.285156 -10.171875 3.96875 -10.296875 4.75 -10.296875 C 5.65625 -10.296875 6.40625 -10.164062 7 -9.90625 C 7.601562 -9.644531 8.070312 -9.289062 8.40625 -8.84375 L 7.0625 -7.390625 L 6.875 -7.390625 C 6.59375 -7.703125 6.273438 -7.929688 5.921875 -8.078125 C 5.566406 -8.222656 5.175781 -8.296875 4.75 -8.296875 C 3.75 -8.296875 3.25 -7.984375 3.25 -7.359375 C 3.25 -7.097656 3.335938 -6.882812 3.515625 -6.71875 C 3.703125 -6.5625 4.035156 -6.429688 4.515625 -6.328125 L 5.75 -6.046875 C 6.78125 -5.828125 7.53125 -5.472656 8 -4.984375 C 8.476562 -4.503906 8.71875 -3.851562 8.71875 -3.03125 C 8.71875 -2.394531 8.554688 -1.832031 8.234375 -1.34375 C 7.921875 -0.851562 7.460938 -0.472656 6.859375 -0.203125 C 6.265625 0.0546875 5.554688 0.1875 4.734375 0.1875 Z M 4.734375 0.1875 "/></g></g><g transform="translate(35.602641, 16.055881)"><g><path d="M 1.453125 0 L 1.453125 -10.109375 L 3.890625 -10.109375 L 3.890625 -8.75 L 4.09375 -8.71875 C 4.414062 -9.257812 4.796875 -9.65625 5.234375 -9.90625 C 5.679688 -10.164062 6.253906 -10.296875 6.953125 -10.296875 C 7.710938 -10.296875 8.320312 -10.144531 8.78125 -9.84375 C 9.25 -9.539062 9.585938 -9.097656 9.796875 -8.515625 L 10 -8.515625 C 10.3125 -9.117188 10.710938 -9.566406 11.203125 -9.859375 C 11.691406 -10.148438 12.300781 -10.296875 13.03125 -10.296875 C 15.132812 -10.296875 16.1875 -9.128906 16.1875 -6.796875 L 16.1875 0 L 13.640625 0 L 13.640625 -6.484375 C 13.640625 -7.066406 13.523438 -7.488281 13.296875 -7.75 C 13.066406 -8.019531 12.691406 -8.15625 12.171875 -8.15625 C 10.785156 -8.15625 10.09375 -7.222656 10.09375 -5.359375 L 10.09375 0 L 7.546875 0 L 7.546875 -6.484375 C 7.546875 -7.066406 7.425781 -7.488281 7.1875 -7.75 C 6.957031 -8.019531 6.585938 -8.15625 6.078125 -8.15625 C 5.421875 -8.15625 4.910156 -7.9375 4.546875 -7.5 C 4.179688 -7.0625 4 -6.367188 4 -5.421875 L 4 0 Z M 1.453125 0 "/></g></g><g transform="translate(53.089995, 16.055881)"><g/></g><g transform="translate(57.516826, 16.055881)"><g><path d="M 12.859375 0 L 10.0625 0 L 9.0625 -3.09375 L 3.9375 -3.09375 L 2.921875 0 L 0.203125 0 L 4.828125 -13.390625 L 8.234375 -13.390625 Z M 6.375 -10.59375 L 4.640625 -5.3125 L 8.328125 -5.3125 L 6.59375 -10.59375 Z M 6.375 -10.59375 "/></g></g><g transform="translate(70.57735, 16.055881)"><g><path d="M 4.390625 0 L 1.734375 0 L 1.734375 -13.390625 L 4.390625 -13.390625 Z M 4.390625 0 "/></g></g></g></g></g><g fill="#e6ccff" fill-opacity="1"><g transform="translate(42.455162, 29.143946)"><g><path d="M 1.546875 0 L 0.71875 0 L 0.71875 -6.875 L 1.546875 -6.875 Z M 1.546875 0 "/></g></g></g><g fill="#e6ccff" fill-opacity="1"><g transform="translate(44.716675, 29.143946)"><g><path d="M 1.40625 0 L 0.640625 0 L 0.640625 -4.984375 L 1.40625 -4.984375 L 1.40625 -4.203125 C 1.65625 -4.535156 1.894531 -4.765625 2.125 -4.890625 C 2.363281 -5.015625 2.617188 -5.078125 2.890625 -5.078125 C 3.273438 -5.078125 3.582031 -5.003906 3.8125 -4.859375 C 4.050781 -4.710938 4.234375 -4.523438 4.359375 -4.296875 C 4.472656 -4.066406 4.539062 -3.832031 4.5625 -3.59375 C 4.582031 -3.351562 4.59375 -3.15625 4.59375 -3 L 4.59375 0 L 3.828125 0 L 3.828125 -3 C 3.828125 -3.53125 3.726562 -3.90625 3.53125 -4.125 C 3.363281 -4.3125 3.109375 -4.40625 2.765625 -4.40625 C 2.566406 -4.40625 2.390625 -4.367188 2.234375 -4.296875 C 2.085938 -4.234375 1.960938 -4.144531 1.859375 -4.03125 C 1.691406 -3.863281 1.570312 -3.628906 1.5 -3.328125 C 1.4375 -3.035156 1.40625 -2.632812 1.40625 -2.125 Z M 1.40625 0 "/></g></g></g><g fill="#e6ccff" fill-opacity="1"><g transform="translate(49.753126, 29.143946)"><g><path d="M 2.921875 0 L 2.234375 0 C 1.984375 0 1.769531 -0.03125 1.59375 -0.09375 C 1.414062 -0.164062 1.28125 -0.289062 1.1875 -0.46875 C 1.09375 -0.65625 1.046875 -0.914062 1.046875 -1.25 L 1.046875 -4.3125 L 0.25 -4.3125 L 0.25 -4.984375 L 1.046875 -4.984375 L 1.046875 -6.875 L 1.8125 -6.875 L 1.8125 -4.984375 L 2.9375 -4.984375 L 2.9375 -4.3125 L 1.8125 -4.3125 L 1.8125 -1.40625 C 1.8125 -1.257812 1.820312 -1.128906 1.84375 -1.015625 C 1.863281 -0.910156 1.914062 -0.828125 2 -0.765625 C 2.082031 -0.703125 2.21875 -0.671875 2.40625 -0.671875 L 2.921875 -0.671875 Z M 2.921875 0 "/></g></g></g><g fill="#e6ccff" fill-opacity="1"><g transform="translate(52.861429, 29.143946)"><g><path d="M 2.859375 0.09375 C 2.378906 0.09375 1.957031 -0.0195312 1.59375 -0.25 C 1.226562 -0.476562 0.941406 -0.785156 0.734375 -1.171875 C 0.535156 -1.554688 0.4375 -1.992188 0.4375 -2.484375 C 0.4375 -2.929688 0.523438 -3.351562 0.703125 -3.75 C 0.890625 -4.144531 1.164062 -4.460938 1.53125 -4.703125 C 1.894531 -4.953125 2.332031 -5.078125 2.84375 -5.078125 C 3.257812 -5.078125 3.648438 -4.984375 4.015625 -4.796875 C 4.378906 -4.609375 4.675781 -4.332031 4.90625 -3.96875 C 5.132812 -3.601562 5.25 -3.148438 5.25 -2.609375 L 5.25 -2.34375 L 1.1875 -2.34375 C 1.195312 -2.164062 1.234375 -2 1.296875 -1.84375 C 1.421875 -1.457031 1.617188 -1.148438 1.890625 -0.921875 C 2.171875 -0.703125 2.488281 -0.59375 2.84375 -0.59375 C 3.226562 -0.59375 3.546875 -0.691406 3.796875 -0.890625 C 4.046875 -1.085938 4.226562 -1.328125 4.34375 -1.609375 L 5.15625 -1.609375 C 5.050781 -1.296875 4.894531 -1.007812 4.6875 -0.75 C 4.488281 -0.5 4.238281 -0.296875 3.9375 -0.140625 C 3.632812 0.015625 3.273438 0.09375 2.859375 0.09375 Z M 1.265625 -3.015625 L 4.421875 -3.015625 C 4.421875 -3.097656 4.410156 -3.179688 4.390625 -3.265625 C 4.367188 -3.359375 4.34375 -3.4375 4.3125 -3.5 C 4.1875 -3.789062 3.988281 -4.015625 3.71875 -4.171875 C 3.457031 -4.328125 3.171875 -4.40625 2.859375 -4.40625 C 2.523438 -4.40625 2.234375 -4.328125 1.984375 -4.171875 C 1.734375 -4.015625 1.539062 -3.789062 1.40625 -3.5 C 1.375 -3.425781 1.34375 -3.347656 1.3125 -3.265625 C 1.289062 -3.179688 1.273438 -3.097656 1.265625 -3.015625 Z M 1.265625 -3.015625 "/></g></g></g><g fill="#e6ccff" fill-opacity="1"><g transform="translate(58.528737, 29.143946)"><g><path d="M 2.234375 0 L 1.796875 0 C 1.554688 0 1.347656 -0.03125 1.171875 -0.09375 C 0.992188 -0.164062 0.859375 -0.289062 0.765625 -0.46875 C 0.671875 -0.65625 0.625 -0.914062 0.625 -1.25 L 0.625 -6.875 L 1.390625 -6.875 L 1.390625 -1.375 C 1.390625 -1.21875 1.398438 -1.085938 1.421875 -0.984375 C 1.441406 -0.890625 1.492188 -0.8125 1.578125 -0.75 C 1.660156 -0.695312 1.796875 -0.671875 1.984375 -0.671875 L 2.234375 -0.671875 Z M 2.234375 0 "/></g></g></g><g fill="#e6ccff" fill-opacity="1"><g transform="translate(61.024514, 29.143946)"><g><path d="M 2.234375 0 L 1.796875 0 C 1.554688 0 1.347656 -0.03125 1.171875 -0.09375 C 0.992188 -0.164062 0.859375 -0.289062 0.765625 -0.46875 C 0.671875 -0.65625 0.625 -0.914062 0.625 -1.25 L 0.625 -6.875 L 1.390625 -6.875 L 1.390625 -1.375 C 1.390625 -1.21875 1.398438 -1.085938 1.421875 -0.984375 C 1.441406 -0.890625 1.492188 -0.8125 1.578125 -0.75 C 1.660156 -0.695312 1.796875 -0.671875 1.984375 -0.671875 L 2.234375 -0.671875 Z M 2.234375 0 "/></g></g></g><g fill="#e6ccff" fill-opacity="1"><g transform="translate(63.520291, 29.143946)"><g><path d="M 1.03125 -5.84375 C 0.863281 -5.84375 0.722656 -5.894531 0.609375 -6 C 0.492188 -6.113281 0.4375 -6.25 0.4375 -6.40625 C 0.4375 -6.5625 0.492188 -6.691406 0.609375 -6.796875 C 0.722656 -6.910156 0.863281 -6.96875 1.03125 -6.96875 C 1.1875 -6.96875 1.320312 -6.910156 1.4375 -6.796875 C 1.550781 -6.691406 1.609375 -6.5625 1.609375 -6.40625 C 1.609375 -6.25 1.550781 -6.113281 1.4375 -6 C 1.320312 -5.894531 1.1875 -5.84375 1.03125 -5.84375 Z M 1.40625 0 L 0.640625 0 L 0.640625 -4.984375 L 1.40625 -4.984375 Z M 1.40625 0 "/></g></g></g><g fill="#e6ccff" fill-opacity="1"><g transform="translate(65.565566, 29.143946)"><g><path d="M 2.84375 1.984375 C 2.5 1.984375 2.171875 1.929688 1.859375 1.828125 C 1.546875 1.734375 1.273438 1.570312 1.046875 1.34375 C 0.828125 1.125 0.679688 0.8125 0.609375 0.40625 L 1.390625 0.40625 C 1.472656 0.695312 1.628906 0.921875 1.859375 1.078125 C 2.097656 1.234375 2.421875 1.3125 2.828125 1.3125 C 3.347656 1.3125 3.722656 1.191406 3.953125 0.953125 C 4.191406 0.710938 4.3125 0.382812 4.3125 -0.03125 L 4.3125 -0.78125 C 4.0625 -0.445312 3.8125 -0.21875 3.5625 -0.09375 C 3.3125 0.03125 3.019531 0.09375 2.6875 0.09375 C 2.238281 0.09375 1.847656 -0.015625 1.515625 -0.234375 C 1.179688 -0.453125 0.921875 -0.753906 0.734375 -1.140625 C 0.554688 -1.523438 0.46875 -1.96875 0.46875 -2.46875 C 0.46875 -2.988281 0.554688 -3.441406 0.734375 -3.828125 C 0.921875 -4.222656 1.179688 -4.53125 1.515625 -4.75 C 1.847656 -4.96875 2.234375 -5.078125 2.671875 -5.078125 C 3.023438 -5.078125 3.320312 -5.015625 3.5625 -4.890625 C 3.8125 -4.765625 4.0625 -4.535156 4.3125 -4.203125 L 4.3125 -4.984375 L 5.078125 -4.984375 L 5.078125 -0.171875 C 5.078125 0.367188 4.976562 0.796875 4.78125 1.109375 C 4.59375 1.421875 4.332031 1.644531 4 1.78125 C 3.664062 1.914062 3.28125 1.984375 2.84375 1.984375 Z M 2.765625 -0.59375 C 3.078125 -0.59375 3.347656 -0.671875 3.578125 -0.828125 C 3.816406 -0.992188 4.003906 -1.222656 4.140625 -1.515625 C 4.273438 -1.804688 4.34375 -2.132812 4.34375 -2.5 C 4.34375 -2.863281 4.273438 -3.1875 4.140625 -3.46875 C 4.003906 -3.757812 3.816406 -3.988281 3.578125 -4.15625 C 3.335938 -4.320312 3.066406 -4.40625 2.765625 -4.40625 C 2.453125 -4.40625 2.179688 -4.316406 1.953125 -4.140625 C 1.722656 -3.972656 1.546875 -3.742188 1.421875 -3.453125 C 1.296875 -3.171875 1.234375 -2.851562 1.234375 -2.5 C 1.234375 -2.132812 1.296875 -1.804688 1.421875 -1.515625 C 1.546875 -1.234375 1.722656 -1.007812 1.953125 -0.84375 C 2.179688 -0.675781 2.453125 -0.59375 2.765625 -0.59375 Z M 2.765625 -0.59375 "/></g></g></g><g fill="#e6ccff" fill-opacity="1"><g transform="translate(71.286931, 29.143946)"><g><path d="M 2.859375 0.09375 C 2.378906 0.09375 1.957031 -0.0195312 1.59375 -0.25 C 1.226562 -0.476562 0.941406 -0.785156 0.734375 -1.171875 C 0.535156 -1.554688 0.4375 -1.992188 0.4375 -2.484375 C 0.4375 -2.929688 0.523438 -3.351562 0.703125 -3.75 C 0.890625 -4.144531 1.164062 -4.460938 1.53125 -4.703125 C 1.894531 -4.953125 2.332031 -5.078125 2.84375 -5.078125 C 3.257812 -5.078125 3.648438 -4.984375 4.015625 -4.796875 C 4.378906 -4.609375 4.675781 -4.332031 4.90625 -3.96875 C 5.132812 -3.601562 5.25 -3.148438 5.25 -2.609375 L 5.25 -2.34375 L 1.1875 -2.34375 C 1.195312 -2.164062 1.234375 -2 1.296875 -1.84375 C 1.421875 -1.457031 1.617188 -1.148438 1.890625 -0.921875 C 2.171875 -0.703125 2.488281 -0.59375 2.84375 -0.59375 C 3.226562 -0.59375 3.546875 -0.691406 3.796875 -0.890625 C 4.046875 -1.085938 4.226562 -1.328125 4.34375 -1.609375 L 5.15625 -1.609375 C 5.050781 -1.296875 4.894531 -1.007812 4.6875 -0.75 C 4.488281 -0.5 4.238281 -0.296875 3.9375 -0.140625 C 3.632812 0.015625 3.273438 0.09375 2.859375 0.09375 Z M 1.265625 -3.015625 L 4.421875 -3.015625 C 4.421875 -3.097656 4.410156 -3.179688 4.390625 -3.265625 C 4.367188 -3.359375 4.34375 -3.4375 4.3125 -3.5 C 4.1875 -3.789062 3.988281 -4.015625 3.71875 -4.171875 C 3.457031 -4.328125 3.171875 -4.40625 2.859375 -4.40625 C 2.523438 -4.40625 2.234375 -4.328125 1.984375 -4.171875 C 1.734375 -4.015625 1.539062 -3.789062 1.40625 -3.5 C 1.375 -3.425781 1.34375 -3.347656 1.3125 -3.265625 C 1.289062 -3.179688 1.273438 -3.097656 1.265625 -3.015625 Z M 1.265625 -3.015625 "/></g></g></g><g fill="#e6ccff" fill-opacity="1"><g transform="translate(76.954239, 29.143946)"><g><path d="M 1.40625 0 L 0.640625 0 L 0.640625 -4.984375 L 1.40625 -4.984375 L 1.40625 -4.203125 C 1.65625 -4.535156 1.894531 -4.765625 2.125 -4.890625 C 2.363281 -5.015625 2.617188 -5.078125 2.890625 -5.078125 C 3.273438 -5.078125 3.582031 -5.003906 3.8125 -4.859375 C 4.050781 -4.710938 4.234375 -4.523438 4.359375 -4.296875 C 4.472656 -4.066406 4.539062 -3.832031 4.5625 -3.59375 C 4.582031 -3.351562 4.59375 -3.15625 4.59375 -3 L 4.59375 0 L 3.828125 0 L 3.828125 -3 C 3.828125 -3.53125 3.726562 -3.90625 3.53125 -4.125 C 3.363281 -4.3125 3.109375 -4.40625 2.765625 -4.40625 C 2.566406 -4.40625 2.390625 -4.367188 2.234375 -4.296875 C 2.085938 -4.234375 1.960938 -4.144531 1.859375 -4.03125 C 1.691406 -3.863281 1.570312 -3.628906 1.5 -3.328125 C 1.4375 -3.035156 1.40625 -2.632812 1.40625 -2.125 Z M 1.40625 0 "/></g></g></g><g fill="#e6ccff" fill-opacity="1"><g transform="translate(81.99069, 29.143946)"><g><path d="M 2.921875 0 L 2.234375 0 C 1.984375 0 1.769531 -0.03125 1.59375 -0.09375 C 1.414062 -0.164062 1.28125 -0.289062 1.1875 -0.46875 C 1.09375 -0.65625 1.046875 -0.914062 1.046875 -1.25 L 1.046875 -4.3125 L 0.25 -4.3125 L 0.25 -4.984375 L 1.046875 -4.984375 L 1.046875 -6.875 L 1.8125 -6.875 L 1.8125 -4.984375 L 2.9375 -4.984375 L 2.9375 -4.3125 L 1.8125 -4.3125 L 1.8125 -1.40625 C 1.8125 -1.257812 1.820312 -1.128906 1.84375 -1.015625 C 1.863281 -0.910156 1.914062 -0.828125 2 -0.765625 C 2.082031 -0.703125 2.21875 -0.671875 2.40625 -0.671875 L 2.921875 -0.671875 Z M 2.921875 0 "/></g></g></g><g fill="#e6ccff" fill-opacity="1"><g transform="translate(85.243305, 29.143946)"><g/></g></g><g fill="#e6ccff" fill-opacity="1"><g transform="translate(87.766111, 29.143946)"><g><path d="M 0.96875 0 L 0.125 0 L 2.65625 -6.875 L 3.59375 -6.875 L 6.125 0 L 5.296875 0 L 4.6875 -1.6875 L 1.5625 -1.6875 Z M 3.125 -6.03125 L 1.84375 -2.421875 L 4.40625 -2.421875 Z M 3.125 -6.03125 "/></g></g></g><g fill="#e6ccff" fill-opacity="1"><g transform="translate(94.019074, 29.143946)"><g><path d="M 1.546875 0 L 0.71875 0 L 0.71875 -6.875 L 1.546875 -6.875 Z M 1.546875 0 "/></g></g></g><g fill="#e6ccff" fill-opacity="1"><g transform="translate(96.280587, 29.143946)"><g/></g></g><g fill="#e6ccff" fill-opacity="1"><g transform="translate(98.803392, 29.143946)"><g><path d="M 0.96875 0 L 0.125 0 L 2.65625 -6.875 L 3.59375 -6.875 L 6.125 0 L 5.296875 0 L 4.6875 -1.6875 L 1.5625 -1.6875 Z M 3.125 -6.03125 L 1.84375 -2.421875 L 4.40625 -2.421875 Z M 3.125 -6.03125 "/></g></g></g><g fill="#e6ccff" fill-opacity="1"><g transform="translate(105.056355, 29.143946)"><g><path d="M 2.65625 0.09375 C 2.007812 0.09375 1.488281 -0.0546875 1.09375 -0.359375 C 0.707031 -0.671875 0.472656 -1.085938 0.390625 -1.609375 L 1.1875 -1.609375 C 1.257812 -1.304688 1.410156 -1.0625 1.640625 -0.875 C 1.878906 -0.6875 2.21875 -0.59375 2.65625 -0.59375 C 3 -0.59375 3.273438 -0.65625 3.484375 -0.78125 C 3.691406 -0.90625 3.796875 -1.097656 3.796875 -1.359375 C 3.796875 -1.566406 3.726562 -1.726562 3.59375 -1.84375 C 3.46875 -1.957031 3.296875 -2.039062 3.078125 -2.09375 C 2.867188 -2.15625 2.640625 -2.210938 2.390625 -2.265625 C 2.179688 -2.304688 1.96875 -2.351562 1.75 -2.40625 C 1.539062 -2.457031 1.347656 -2.53125 1.171875 -2.625 C 0.992188 -2.726562 0.851562 -2.859375 0.75 -3.015625 C 0.644531 -3.179688 0.59375 -3.390625 0.59375 -3.640625 C 0.59375 -3.953125 0.671875 -4.210938 0.828125 -4.421875 C 0.992188 -4.640625 1.210938 -4.800781 1.484375 -4.90625 C 1.765625 -5.019531 2.070312 -5.078125 2.40625 -5.078125 C 2.945312 -5.078125 3.394531 -4.9375 3.75 -4.65625 C 4.113281 -4.375 4.335938 -3.984375 4.421875 -3.484375 L 3.71875 -3.484375 C 3.632812 -3.804688 3.476562 -4.039062 3.25 -4.1875 C 3.019531 -4.332031 2.738281 -4.40625 2.40625 -4.40625 C 2.070312 -4.40625 1.8125 -4.34375 1.625 -4.21875 C 1.445312 -4.09375 1.359375 -3.921875 1.359375 -3.703125 C 1.359375 -3.523438 1.421875 -3.382812 1.546875 -3.28125 C 1.671875 -3.1875 1.832031 -3.113281 2.03125 -3.0625 C 2.226562 -3.019531 2.441406 -2.972656 2.671875 -2.921875 C 2.890625 -2.878906 3.109375 -2.828125 3.328125 -2.765625 C 3.554688 -2.710938 3.765625 -2.632812 3.953125 -2.53125 C 4.140625 -2.425781 4.289062 -2.285156 4.40625 -2.109375 C 4.519531 -1.941406 4.578125 -1.71875 4.578125 -1.4375 C 4.578125 -0.976562 4.40625 -0.609375 4.0625 -0.328125 C 3.726562 -0.046875 3.257812 0.09375 2.65625 0.09375 Z M 2.65625 0.09375 "/></g></g></g><g fill="#e6ccff" fill-opacity="1"><g transform="translate(110.074938, 29.143946)"><g><path d="M 2.65625 0.09375 C 2.007812 0.09375 1.488281 -0.0546875 1.09375 -0.359375 C 0.707031 -0.671875 0.472656 -1.085938 0.390625 -1.609375 L 1.1875 -1.609375 C 1.257812 -1.304688 1.410156 -1.0625 1.640625 -0.875 C 1.878906 -0.6875 2.21875 -0.59375 2.65625 -0.59375 C 3 -0.59375 3.273438 -0.65625 3.484375 -0.78125 C 3.691406 -0.90625 3.796875 -1.097656 3.796875 -1.359375 C 3.796875 -1.566406 3.726562 -1.726562 3.59375 -1.84375 C 3.46875 -1.957031 3.296875 -2.039062 3.078125 -2.09375 C 2.867188 -2.15625 2.640625 -2.210938 2.390625 -2.265625 C 2.179688 -2.304688 1.96875 -2.351562 1.75 -2.40625 C 1.539062 -2.457031 1.347656 -2.53125 1.171875 -2.625 C 0.992188 -2.726562 0.851562 -2.859375 0.75 -3.015625 C 0.644531 -3.179688 0.59375 -3.390625 0.59375 -3.640625 C 0.59375 -3.953125 0.671875 -4.210938 0.828125 -4.421875 C 0.992188 -4.640625 1.210938 -4.800781 1.484375 -4.90625 C 1.765625 -5.019531 2.070312 -5.078125 2.40625 -5.078125 C 2.945312 -5.078125 3.394531 -4.9375 3.75 -4.65625 C 4.113281 -4.375 4.335938 -3.984375 4.421875 -3.484375 L 3.71875 -3.484375 C 3.632812 -3.804688 3.476562 -4.039062 3.25 -4.1875 C 3.019531 -4.332031 2.738281 -4.40625 2.40625 -4.40625 C 2.070312 -4.40625 1.8125 -4.34375 1.625 -4.21875 C 1.445312 -4.09375 1.359375 -3.921875 1.359375 -3.703125 C 1.359375 -3.523438 1.421875 -3.382812 1.546875 -3.28125 C 1.671875 -3.1875 1.832031 -3.113281 2.03125 -3.0625 C 2.226562 -3.019531 2.441406 -2.972656 2.671875 -2.921875 C 2.890625 -2.878906 3.109375 -2.828125 3.328125 -2.765625 C 3.554688 -2.710938 3.765625 -2.632812 3.953125 -2.53125 C 4.140625 -2.425781 4.289062 -2.285156 4.40625 -2.109375 C 4.519531 -1.941406 4.578125 -1.71875 4.578125 -1.4375 C 4.578125 -0.976562 4.40625 -0.609375 4.0625 -0.328125 C 3.726562 -0.046875 3.257812 0.09375 2.65625 0.09375 Z M 2.65625 0.09375 "/></g></g></g><g fill="#e6ccff" fill-opacity="1"><g transform="translate(115.093521, 29.143946)"><g><path d="M 1.03125 -5.84375 C 0.863281 -5.84375 0.722656 -5.894531 0.609375 -6 C 0.492188 -6.113281 0.4375 -6.25 0.4375 -6.40625 C 0.4375 -6.5625 0.492188 -6.691406 0.609375 -6.796875 C 0.722656 -6.910156 0.863281 -6.96875 1.03125 -6.96875 C 1.1875 -6.96875 1.320312 -6.910156 1.4375 -6.796875 C 1.550781 -6.691406 1.609375 -6.5625 1.609375 -6.40625 C 1.609375 -6.25 1.550781 -6.113281 1.4375 -6 C 1.320312 -5.894531 1.1875 -5.84375 1.03125 -5.84375 Z M 1.40625 0 L 0.640625 0 L 0.640625 -4.984375 L 1.40625 -4.984375 Z M 1.40625 0 "/></g></g></g><g fill="#e6ccff" fill-opacity="1"><g transform="translate(117.138796, 29.143946)"><g><path d="M 2.65625 0.09375 C 2.007812 0.09375 1.488281 -0.0546875 1.09375 -0.359375 C 0.707031 -0.671875 0.472656 -1.085938 0.390625 -1.609375 L 1.1875 -1.609375 C 1.257812 -1.304688 1.410156 -1.0625 1.640625 -0.875 C 1.878906 -0.6875 2.21875 -0.59375 2.65625 -0.59375 C 3 -0.59375 3.273438 -0.65625 3.484375 -0.78125 C 3.691406 -0.90625 3.796875 -1.097656 3.796875 -1.359375 C 3.796875 -1.566406 3.726562 -1.726562 3.59375 -1.84375 C 3.46875 -1.957031 3.296875 -2.039062 3.078125 -2.09375 C 2.867188 -2.15625 2.640625 -2.210938 2.390625 -2.265625 C 2.179688 -2.304688 1.96875 -2.351562 1.75 -2.40625 C 1.539062 -2.457031 1.347656 -2.53125 1.171875 -2.625 C 0.992188 -2.726562 0.851562 -2.859375 0.75 -3.015625 C 0.644531 -3.179688 0.59375 -3.390625 0.59375 -3.640625 C 0.59375 -3.953125 0.671875 -4.210938 0.828125 -4.421875 C 0.992188 -4.640625 1.210938 -4.800781 1.484375 -4.90625 C 1.765625 -5.019531 2.070312 -5.078125 2.40625 -5.078125 C 2.945312 -5.078125 3.394531 -4.9375 3.75 -4.65625 C 4.113281 -4.375 4.335938 -3.984375 4.421875 -3.484375 L 3.71875 -3.484375 C 3.632812 -3.804688 3.476562 -4.039062 3.25 -4.1875 C 3.019531 -4.332031 2.738281 -4.40625 2.40625 -4.40625 C 2.070312 -4.40625 1.8125 -4.34375 1.625 -4.21875 C 1.445312 -4.09375 1.359375 -3.921875 1.359375 -3.703125 C 1.359375 -3.523438 1.421875 -3.382812 1.546875 -3.28125 C 1.671875 -3.1875 1.832031 -3.113281 2.03125 -3.0625 C 2.226562 -3.019531 2.441406 -2.972656 2.671875 -2.921875 C 2.890625 -2.878906 3.109375 -2.828125 3.328125 -2.765625 C 3.554688 -2.710938 3.765625 -2.632812 3.953125 -2.53125 C 4.140625 -2.425781 4.289062 -2.285156 4.40625 -2.109375 C 4.519531 -1.941406 4.578125 -1.71875 4.578125 -1.4375 C 4.578125 -0.976562 4.40625 -0.609375 4.0625 -0.328125 C 3.726562 -0.046875 3.257812 0.09375 2.65625 0.09375 Z M 2.65625 0.09375 "/></g></g></g><g fill="#e6ccff" fill-opacity="1"><g transform="translate(122.094241, 29.143946)"><g><path d="M 2.921875 0 L 2.234375 0 C 1.984375 0 1.769531 -0.03125 1.59375 -0.09375 C 1.414062 -0.164062 1.28125 -0.289062 1.1875 -0.46875 C 1.09375 -0.65625 1.046875 -0.914062 1.046875 -1.25 L 1.046875 -4.3125 L 0.25 -4.3125 L 0.25 -4.984375 L 1.046875 -4.984375 L 1.046875 -6.875 L 1.8125 -6.875 L 1.8125 -4.984375 L 2.9375 -4.984375 L 2.9375 -4.3125 L 1.8125 -4.3125 L 1.8125 -1.40625 C 1.8125 -1.257812 1.820312 -1.128906 1.84375 -1.015625 C 1.863281 -0.910156 1.914062 -0.828125 2 -0.765625 C 2.082031 -0.703125 2.21875 -0.671875 2.40625 -0.671875 L 2.921875 -0.671875 Z M 2.921875 0 "/></g></g></g><g fill="#e6ccff" fill-opacity="1"><g transform="translate(125.346856, 29.143946)"><g><path d="M 2.0625 0.09375 C 1.5625 0.09375 1.164062 -0.03125 0.875 -0.28125 C 0.582031 -0.539062 0.4375 -0.890625 0.4375 -1.328125 C 0.4375 -1.753906 0.597656 -2.097656 0.921875 -2.359375 C 1.179688 -2.566406 1.5625 -2.722656 2.0625 -2.828125 L 3.84375 -3.171875 C 3.84375 -3.554688 3.738281 -3.851562 3.53125 -4.0625 C 3.300781 -4.289062 2.992188 -4.40625 2.609375 -4.40625 C 2.304688 -4.40625 2.039062 -4.320312 1.8125 -4.15625 C 1.59375 -3.988281 1.453125 -3.765625 1.390625 -3.484375 L 0.625 -3.484375 C 0.6875 -3.835938 0.8125 -4.128906 1 -4.359375 C 1.195312 -4.597656 1.4375 -4.773438 1.71875 -4.890625 C 2 -5.015625 2.300781 -5.078125 2.625 -5.078125 C 2.914062 -5.078125 3.1875 -5.035156 3.4375 -4.953125 C 3.695312 -4.867188 3.910156 -4.738281 4.078125 -4.5625 C 4.253906 -4.394531 4.378906 -4.203125 4.453125 -3.984375 C 4.523438 -3.773438 4.566406 -3.578125 4.578125 -3.390625 C 4.597656 -3.203125 4.609375 -3.050781 4.609375 -2.9375 L 4.609375 0 L 3.84375 0 L 3.84375 -0.78125 C 3.664062 -0.53125 3.460938 -0.335938 3.234375 -0.203125 C 3.066406 -0.0976562 2.882812 -0.0234375 2.6875 0.015625 C 2.488281 0.0664062 2.28125 0.09375 2.0625 0.09375 Z M 2.140625 -0.59375 C 2.453125 -0.59375 2.71875 -0.644531 2.9375 -0.75 C 3.289062 -0.9375 3.53125 -1.175781 3.65625 -1.46875 C 3.78125 -1.769531 3.84375 -2.128906 3.84375 -2.546875 L 2.234375 -2.21875 C 1.859375 -2.144531 1.582031 -2.023438 1.40625 -1.859375 C 1.269531 -1.722656 1.203125 -1.550781 1.203125 -1.34375 C 1.203125 -1.113281 1.285156 -0.929688 1.453125 -0.796875 C 1.628906 -0.660156 1.859375 -0.59375 2.140625 -0.59375 Z M 2.140625 -0.59375 "/></g></g></g><g fill="#e6ccff" fill-opacity="1"><g transform="translate(130.536634, 29.143946)"><g><path d="M 1.40625 0 L 0.640625 0 L 0.640625 -4.984375 L 1.40625 -4.984375 L 1.40625 -4.203125 C 1.65625 -4.535156 1.894531 -4.765625 2.125 -4.890625 C 2.363281 -5.015625 2.617188 -5.078125 2.890625 -5.078125 C 3.273438 -5.078125 3.582031 -5.003906 3.8125 -4.859375 C 4.050781 -4.710938 4.234375 -4.523438 4.359375 -4.296875 C 4.472656 -4.066406 4.539062 -3.832031 4.5625 -3.59375 C 4.582031 -3.351562 4.59375 -3.15625 4.59375 -3 L 4.59375 0 L 3.828125 0 L 3.828125 -3 C 3.828125 -3.53125 3.726562 -3.90625 3.53125 -4.125 C 3.363281 -4.3125 3.109375 -4.40625 2.765625 -4.40625 C 2.566406 -4.40625 2.390625 -4.367188 2.234375 -4.296875 C 2.085938 -4.234375 1.960938 -4.144531 1.859375 -4.03125 C 1.691406 -3.863281 1.570312 -3.628906 1.5 -3.328125 C 1.4375 -3.035156 1.40625 -2.632812 1.40625 -2.125 Z M 1.40625 0 "/></g></g></g><g fill="#e6ccff" fill-opacity="1"><g transform="translate(135.573085, 29.143946)"><g><path d="M 2.921875 0 L 2.234375 0 C 1.984375 0 1.769531 -0.03125 1.59375 -0.09375 C 1.414062 -0.164062 1.28125 -0.289062 1.1875 -0.46875 C 1.09375 -0.65625 1.046875 -0.914062 1.046875 -1.25 L 1.046875 -4.3125 L 0.25 -4.3125 L 0.25 -4.984375 L 1.046875 -4.984375 L 1.046875 -6.875 L 1.8125 -6.875 L 1.8125 -4.984375 L 2.9375 -4.984375 L 2.9375 -4.3125 L 1.8125 -4.3125 L 1.8125 -1.40625 C 1.8125 -1.257812 1.820312 -1.128906 1.84375 -1.015625 C 1.863281 -0.910156 1.914062 -0.828125 2 -0.765625 C 2.082031 -0.703125 2.21875 -0.671875 2.40625 -0.671875 L 2.921875 -0.671875 Z M 2.921875 0 "/></g></g></g></svg>